<?xml version="1.0" encoding="UTF-8"?>
<svg width="28px" height="16px" viewBox="0 0 28 16" version="1.1" xmlns="http://www.w3.org/2000/svg" xmlns:xlink="http://www.w3.org/1999/xlink">
    <title>Group 3</title>
    <defs>
        <polygon id="path-1" points="0 0 28 0 28 16 0 16"></polygon>
    </defs>
    <g id="Kanban-Dashboard-UI" stroke="none" strokeWidth="1" fill="none" fillRule="evenodd">
        <g id="Tasks" transform="translate(-18.000000, -281.000000)">
            <g id="Group-3" transform="translate(18.000000, 281.000000)">
                <mask id="mask-2" fill="white">
                    <use xlink:href="#path-1"></use>
                </mask>
                <g id="Clip-2"></g>
                <path d="M8.16334832,4.98975008 L8.15786967,4.98959039 C8.15786967,4.63630247 8.18734479,4.28019335 8.15233624,3.9302057 C8.04714622,2.87811353 7.13752646,2.08471946 6.05439796,2.07279593 C4.94491717,2.06060624 3.98785233,2.82477701 3.88556599,3.87953068 C3.81839778,4.57205378 3.82245198,5.27591489 3.85817276,5.97163179 C3.89537277,6.69577355 4.47156207,7.17596194 5.22191756,7.18293508 C5.76791951,7.1879387 6.3141954,7.19166481 6.86003299,7.18256247 C7.53565974,7.17133092 8.08467495,6.70359837 8.1565548,6.04892184 C8.19490532,5.69957295 8.16334832,5.343038 8.16334832,4.98975008 L8.16334832,4.98975008 Z M19.8183479,4.97378106 L19.8136911,4.97378106 C19.8136911,5.27447768 19.8031173,5.5755469 19.8157729,5.87576445 C19.8484257,6.64935694 20.410754,7.17782499 21.2029116,7.18469167 C21.7217394,7.18921622 22.2406221,7.18884361 22.7593952,7.18479813 C23.5431156,7.1787299 24.1168395,6.66564534 24.1479582,5.90717019 C24.1725574,5.30684155 24.1762281,4.70353203 24.1455476,4.10362924 C24.0856112,2.93145005 23.1575284,2.07332823 21.9855363,2.07236919 C20.812284,2.07135871 19.8965282,2.92362523 19.821142,4.09851915 C19.8024598,4.38920852 19.8183479,4.68197386 19.8183479,4.97378106 L19.8183479,4.97378106 Z M9.53246219,9.34423527 C8.85404134,9.01042956 8.20323287,8.73358 7.59921204,8.38109054 C6.95486837,8.00512661 6.28439156,7.85001421 5.54756833,7.93140297 C5.43333854,7.9440185 5.31193173,7.96248933 5.21101505,8.01151422 C4.24310249,8.48174858 3.27820319,8.95767856 2.31396133,9.43499253 C1.67005595,9.75378737 1.21905373,10.2451541 0.95421594,10.8971691 C0.674311867,11.5862322 0.783227368,12.3027089 0.771338704,13.0138625 L6.3465742,13.0138625 C6.48326644,12.1604781 6.83389985,11.4152041 7.39748826,10.7622841 C7.96184368,10.1084593 8.71241832,9.71594079 9.53246219,9.34423527 L9.53246219,9.34423527 Z M27.2304642,13.0166837 C27.2304642,12.6795245 27.2279988,12.3546082 27.2309025,12.0297451 C27.2419693,10.8018341 26.6760251,9.91800211 25.5520259,9.36600637 C24.894643,9.04316604 24.2173727,8.75316867 23.5848629,8.38955412 C22.9407932,8.01933904 22.2747541,7.84426536 21.5359585,7.93177559 C21.404471,7.94737199 21.2661899,7.97201751 21.1490017,8.02806877 C20.4800589,8.34776852 19.8163756,8.6777949 19.1514322,9.0053727 C18.9387511,9.11018269 18.7277684,9.21813326 18.4560276,9.35477482 C20.2146732,10.0499594 21.3418501,11.2049985 21.6532563,13.0166837 L27.2304642,13.0166837 Z M16.9098986,4.66467409 C16.9086933,4.66462086 16.9075976,4.66462086 16.9063923,4.66456763 C16.9063923,4.21349609 16.9381136,3.7598695 16.9004753,3.31172561 C16.7865195,1.95361382 15.6115141,0.838923096 14.238346,0.755564819 C12.7643708,0.666085085 11.3941064,1.56019043 11.1793435,2.9317162 C11.0194218,3.95298816 11.058868,5.01295838 11.1016015,6.05211565 C11.1390206,6.96139156 11.954572,7.64076684 12.8948722,7.6560971 C13.6325172,7.66807386 14.3707101,7.66791417 15.1083551,7.65577772 C16.0427384,7.64050069 16.824103,6.94914865 16.9029407,6.04397145 C16.9427157,5.58725752 16.9098986,5.12463505 16.9098986,4.66467409 L16.9098986,4.66467409 Z M20.9327047,15.2412212 C20.9327047,14.7440524 20.9368685,14.259925 20.9319377,13.7758508 C20.9158853,12.1986973 20.2010862,11.0346091 18.7485325,10.3124369 C17.8983561,9.88973694 17.0202933,9.51345364 16.2009069,9.04082392 C15.3147358,8.52970887 14.3957475,8.28666041 13.3747469,8.4044053 C13.3387522,8.40861048 13.3007851,8.39950814 13.265667,8.40610867 C13.1780634,8.42255675 13.0832829,8.42867821 13.00576,8.46663125 C11.673627,9.11875273 10.3326186,9.75495843 9.01692151,10.4370484 C8.01591793,10.9559883 7.35606969,11.7832899 7.17264459,12.8732287 C7.05184042,13.5910893 7.09440951,14.3349794 7.0665232,15.0673718 C7.06427695,15.1254458 7.08317828,15.1842118 7.09199891,15.2412212 L20.9327047,15.2412212 Z M0,11.4317054 C0.0423499409,11.2710038 0.0794951673,11.1088118 0.127981193,10.9498669 C0.415774517,10.0059382 0.990320223,9.27966721 1.8893114,8.81624629 C2.62838088,8.43527874 3.37846243,8.07464507 4.14569215,7.69410336 C4.09139876,7.6479529 4.05173335,7.60760451 4.00571272,7.57609231 C3.45012313,7.19571029 3.11614481,6.67522675 3.09165526,6.0192727 C3.06393331,5.27772471 3.04738779,4.52867128 3.12222611,3.79212692 C3.26735547,2.36449666 4.57050643,1.2998422 6.05834259,1.32390219 C7.56064237,1.34828156 8.81618389,2.46110923 8.92077126,3.90593279 C8.96985994,4.58434993 8.95840956,5.26872883 8.93890558,5.94943486 C8.91912766,6.63823186 8.59353168,7.18426583 8.01060364,7.58184116 C7.96715797,7.6114903 7.92721863,7.64603661 7.87588371,7.68590593 C8.68168311,8.08944303 9.47296409,8.48659252 10.2659434,8.88044174 C10.3082934,8.90146762 10.3757903,8.9159462 10.4136478,8.89790121 C10.8839348,8.6733768 11.3508799,8.44225188 11.8103192,8.2168758 C11.8026491,8.178284 11.8037449,8.16577494 11.7991976,8.16337958 C10.6657751,7.57087577 10.2371258,6.62316775 10.2942133,5.40904327 C10.328674,4.6758524 10.2760789,3.93739176 10.33481,3.20675593 C10.4809256,1.38878963 12.1068236,-0.00807364585 14.0171182,3.51233839e-05 C15.9136067,0.0081082929 17.5287118,1.40832507 17.6591036,3.21926499 C17.724409,4.12667786 17.7125752,5.04234138 17.6808538,5.95241574 C17.6475984,6.90954548 17.1593962,7.62628826 16.2989747,8.09902444 C16.2606789,8.12005031 16.2235337,8.14299247 16.1404774,8.19159152 C16.6388699,8.43666272 17.1045549,8.66762796 17.5733627,8.89247174 C17.6122064,8.91110226 17.6799224,8.90274514 17.7212862,8.88225157 C18.5156352,8.48973309 19.3080119,8.09354174 20.1174272,7.68984496 C20.0698178,7.65082732 20.0335492,7.61580194 19.9921854,7.58796262 C19.4431702,7.21812015 19.0878251,6.71280717 19.0728136,6.06542316 C19.0530905,5.21022899 19.0092065,4.33645753 19.1573492,3.50111817 C19.4019707,2.12182081 20.7462663,1.24224727 22.2526751,1.33465466 C23.588424,1.41662896 24.75943,2.50018009 24.878481,3.83300761 C24.9428551,4.55358295 24.9329388,5.2838994 24.9039567,6.00782824 C24.875139,6.7280842 24.4925651,7.27603446 23.8326621,7.68052969 C24.1519029,7.84059249 24.4435312,7.98830591 24.7365293,8.13335783 C25.1824364,8.35404966 25.6372188,8.55903863 26.0741957,8.79516719 C27.3173007,9.4668241 27.9564945,10.5027343 27.993804,11.8834689 C28.0060762,12.3346469 27.9964338,12.7864104 27.9958311,13.2378546 C27.9952285,13.6670486 27.8874087,13.7740942 27.4532807,13.7740942 C25.6583664,13.7742539 23.8633973,13.7736684 22.068483,13.7734022 C21.9602249,13.773349 21.8519669,13.7734022 21.6999344,13.7734022 C21.6999344,14.0226786 21.7000988,14.2570506 21.6998796,14.4913693 C21.6996057,14.8189471 21.7011397,15.1465249 21.6980717,15.4739963 C21.6942914,15.8784383 21.5737612,15.9978333 21.160726,15.9982591 C19.4295283,16 17.6984403,16 15.9672426,16 C12.9422625,16 9.91728235,15.9992705 6.89235701,15.9985785 C6.4032782,15.9985253 6.29617065,15.8955251 6.29573236,15.4253972 C6.29518449,14.8866558 6.295568,14.3479143 6.295568,13.7734022 L5.95928865,13.7734022 C4.16437433,13.7734022 2.36940523,13.7702617 0.574490919,13.7771816 C0.342579794,13.7780865 0.146718165,13.7410916 0,13.5567559 L0,11.4317054 Z" id="Fill-1" fill="#6C6C6C" mask="url(#mask-2)"></path>
            </g>
        </g>
    </g>
</svg>